<?xml version="1.0" encoding="utf-8"?>
<!-- Generator: Adobe Illustrator 15.1.0, SVG Export Plug-In . SVG Version: 6.00 Build 0)  -->
<!DOCTYPE svg PUBLIC "-//W3C//DTD SVG 1.1//EN" "http://www.w3.org/Graphics/SVG/1.1/DTD/svg11.dtd">
<svg version="1.1" xmlns="http://www.w3.org/2000/svg" xmlns:xlink="http://www.w3.org/1999/xlink" x="0px" y="0px"
	 width="713.42px" height="713.418px" viewBox="0 0 713.42 713.418" enable-background="new 0 0 713.42 713.418"
	 xml:space="preserve">
<g id="Layer_1" display="none">
	
		<image display="inline" overflow="visible" width="1920" height="1080" xlink:href="196F0532.jpg"  transform="matrix(0.4251 0 0 0.4251 -533.9111 -135.3955)">
	</image>
</g>
<g id="Layer_2">
	<g>
		<path d="M682.175,15c8.958,0,16.245,7.288,16.245,16.246v650.925c0,8.959-7.287,16.247-16.245,16.247H31.244
			c-8.957,0-16.244-7.288-16.244-16.247V31.246C15,22.288,22.287,15,31.244,15H682.175 M682.175,0H31.244
			C13.988,0,0,13.989,0,31.246v650.925c0,17.26,13.988,31.247,31.244,31.247h650.931c17.254,0,31.245-13.987,31.245-31.247V31.246
			C713.42,13.989,699.429,0,682.175,0L682.175,0z"/>
		<g>
			<path d="M656.477,76.642v64.209H55.347V76.642c0-11.295,9.178-20.471,20.471-20.471h560.188
				C647.268,56.171,656.477,65.347,656.477,76.642z"/>
			<path d="M314.238,572.59V449.193c9.094,1.3,20.786,1.948,33.778,1.948c58.461,0,108.479-14.289,142.259-46.119
				c25.98-24.684,40.27-61.061,40.27-103.931c0-42.874-18.839-79.251-46.769-101.337c-29.229-23.383-72.752-35.077-133.811-35.077
				c-60.412,0-103.284,3.898-133.814,9.094V572.59H56.154v64.207c0,11.262,9.177,20.475,20.472,20.475h560.188
				c11.263,0,20.472-9.213,20.472-20.475V572.59H314.238z M314.238,243.277c7.145-1.949,20.786-3.898,40.923-3.898
				c49.367,0,77.3,24.034,77.3,64.311c0,44.819-32.479,71.451-85.095,71.451c-14.29,0-24.683-0.648-33.128-2.598V243.277z
				 M601.806,626.882H465.705c-1.125,0-2.037-5.349-2.037-11.951c0-6.605,0.912-11.955,2.037-11.955h136.101
				c1.125,0,2.036,5.35,2.036,11.955C603.842,621.533,602.931,626.882,601.806,626.882z"/>
		</g>
	</g>
</g>
</svg>
