<?xml version="1.0" encoding="utf-8"?>
<!-- Generator: Adobe Illustrator 15.1.0, SVG Export Plug-In . SVG Version: 6.00 Build 0)  -->
<!DOCTYPE svg PUBLIC "-//W3C//DTD SVG 1.1//EN" "http://www.w3.org/Graphics/SVG/1.1/DTD/svg11.dtd">
<svg version="1.1" id="Layer_2" xmlns="http://www.w3.org/2000/svg" xmlns:xlink="http://www.w3.org/1999/xlink" x="0px" y="0px"
	 width="780px" height="252px" viewBox="0 0 780 252" enable-background="new 0 0 780 252" xml:space="preserve">
<g>
	<path fill="#D35E49" d="M234.72,208.465c0,3.918-3.176,7.094-7.094,7.094H79.839c-3.918,0-7.094-3.176-7.094-7.094V60.678
		c0-3.918,3.176-7.094,7.094-7.094h147.787c3.918,0,7.094,3.176,7.094,7.094V208.465z"/>
	<g>
		<path d="M221.792,70.984v14.578H85.312V70.984c0-2.564,2.084-4.647,4.646-4.647h127.186
			C219.701,66.337,221.792,68.42,221.792,70.984z"/>
		<g>
			<path d="M144.089,183.585v-28.017c2.066,0.296,4.721,0.442,7.67,0.442c13.273,0,24.629-3.243,32.299-10.471
				c5.898-5.604,9.143-13.863,9.143-23.597s-4.277-17.993-10.619-23.007c-6.635-5.31-16.518-7.964-30.379-7.964
				c-13.717,0-23.451,0.885-30.383,2.064v90.548H85.494v14.578c0,2.557,2.084,4.648,4.648,4.648h127.186
				c2.557,0,4.648-2.092,4.648-4.648v-14.578H144.089z M144.089,108.817c1.623-0.442,4.721-0.885,9.293-0.885
				c11.207,0,17.549,5.457,17.549,14.601c0,10.176-7.373,16.223-19.32,16.223c-3.244,0-5.604-0.146-7.521-0.59V108.817z"/>
			<path fill="#D35E49" d="M209.841,193.198c0,1.499-0.207,2.713-0.461,2.713h-30.9c-0.256,0-0.463-1.214-0.463-2.713l0,0
				c0-1.5,0.207-2.715,0.463-2.715h30.9C209.634,190.483,209.841,191.698,209.841,193.198L209.841,193.198z"/>
		</g>
	</g>
	<g>
		<path d="M286.587,86.24c6.114-1.041,14.701-1.822,26.8-1.822c12.229,0,20.945,2.342,26.8,7.025
			c5.594,4.424,9.367,11.709,9.367,20.295s-2.862,15.871-8.066,20.814c-6.765,6.375-16.783,9.238-28.491,9.238
			c-2.602,0-4.944-0.131-6.765-0.391v31.354h-19.645V86.24z M306.231,126.049c1.691,0.391,3.773,0.52,6.635,0.52
			c10.538,0,17.043-5.334,17.043-14.311c0-8.064-5.594-12.879-15.482-12.879c-4.033,0-6.765,0.391-8.196,0.781V126.049z"/>
		<path d="M421.235,140.229c0,23.287-16.522,33.955-33.565,33.955c-18.604,0-32.915-12.229-32.915-32.783
			s13.53-33.695,33.956-33.695C408.226,107.705,421.235,121.105,421.235,140.229z M375.181,140.879
			c0,10.93,4.553,19.125,13.01,19.125c7.676,0,12.619-7.676,12.619-19.125c0-9.496-3.643-19.123-12.619-19.123
			C378.694,121.756,375.181,131.514,375.181,140.879z"/>
		<path d="M433.461,80.385h19.775v92.369h-19.775V80.385z"/>
		<path d="M484.067,109.137l9.497,31.223c1.041,3.773,2.342,8.457,3.122,11.838h0.39c0.911-3.381,1.952-8.195,2.863-11.838
			l7.805-31.223h21.207l-14.832,41.891c-9.106,25.238-15.221,35.387-22.377,41.762c-6.895,5.984-14.18,8.064-19.123,8.715
			l-4.164-16.781c2.473-0.391,5.595-1.561,8.587-3.383c2.992-1.561,6.245-4.684,8.196-7.936c0.65-0.91,1.041-1.951,1.041-2.863
			c0-0.65-0.131-1.691-0.911-3.252l-23.287-58.152H484.067z"/>
		<path d="M536.754,172.754c0.26-4.164,0.52-11.84,0.52-18.994V80.385h19.775v36.297h0.26c3.773-5.463,10.408-8.977,19.254-8.977
			c15.222,0,26.41,12.619,26.279,32.135c0,22.896-14.57,34.344-29.141,34.344c-7.416,0-14.571-2.73-19.125-10.277h-0.26
			l-0.781,8.848H536.754z M557.049,145.693c0,1.301,0.13,2.473,0.391,3.512c1.301,5.334,5.854,9.367,11.578,9.367
			c8.456,0,13.66-6.504,13.66-17.953c0-9.887-4.424-17.693-13.66-17.693c-5.334,0-10.277,4.033-11.578,9.758
			c-0.261,1.172-0.391,2.342-0.391,3.643V145.693z"/>
		<path d="M651.234,172.754l-1.17-6.375h-0.391c-4.164,5.074-10.668,7.805-18.215,7.805c-12.879,0-20.555-9.365-20.555-19.514
			c0-16.521,14.832-24.459,37.338-24.328v-0.91c0-3.383-1.82-8.197-11.578-8.197c-6.506,0-13.4,2.213-17.563,4.814l-3.645-12.75
			c4.424-2.471,13.141-5.594,24.719-5.594c21.207,0,27.971,12.49,27.971,27.451v22.115c0,6.115,0.262,11.969,0.912,15.482H651.234z
			 M648.893,142.701c-10.408-0.131-18.473,2.342-18.473,10.018c0,5.074,3.381,7.545,7.805,7.545c4.943,0,8.977-3.252,10.277-7.285
			c0.26-1.041,0.391-2.211,0.391-3.383V142.701z"/>
		<path d="M683.756,130.082c0-9.367-0.26-15.482-0.52-20.945h17.043l0.65,11.709h0.52c3.254-9.238,11.059-13.141,17.174-13.141
			c1.82,0,2.732,0,4.162,0.26v18.604c-1.43-0.26-3.121-0.52-5.334-0.52c-7.285,0-12.229,3.902-13.529,10.018
			c-0.26,1.301-0.391,2.861-0.391,4.424v32.264h-19.775V130.082z"/>
	</g>
</g>
</svg>
