<?xml version="1.0" encoding="utf-8"?>
<!-- Generator: Adobe Illustrator 15.1.0, SVG Export Plug-In . SVG Version: 6.00 Build 0)  -->
<!DOCTYPE svg PUBLIC "-//W3C//DTD SVG 1.1//EN" "http://www.w3.org/Graphics/SVG/1.1/DTD/svg11.dtd">
<svg version="1.1" id="Layer_2" xmlns="http://www.w3.org/2000/svg" xmlns:xlink="http://www.w3.org/1999/xlink" x="0px" y="0px"
	 width="525px" height="525px" viewBox="0 0 525 525" enable-background="new 0 0 525 525" xml:space="preserve">
<rect width="525" height="525"/>
<g>
	<g>
		<path fill="#FFFFFF" d="M424.431,24.183c4.457,0,8.083,3.623,8.083,8.08v323.859c0,4.459-3.626,8.084-8.083,8.084H100.568
			c-4.456,0-8.082-3.625-8.082-8.084V32.263c0-4.457,3.626-8.08,8.082-8.08H424.431 M424.431,16.718H100.568
			c-8.584,0-15.544,6.961-15.544,15.545v323.859c0,8.588,6.96,15.547,15.544,15.547h323.862c8.585,0,15.545-6.959,15.545-15.547
			V32.263C439.976,23.679,433.016,16.718,424.431,16.718L424.431,16.718z"/>
		<g>
			<path fill="#FFFFFF" d="M411.646,54.851v31.945H112.56V54.851c0-5.621,4.567-10.186,10.185-10.186h278.715
				C407.063,44.665,411.646,49.229,411.646,54.851z"/>
			<path fill="#FFFFFF" d="M241.371,301.601v-61.393c4.522,0.646,10.34,0.969,16.805,0.969c29.084,0,53.974-7.109,70.778-22.943
				c12.928-12.281,20.034-30.383,20.034-51.709c0-21.334-9.371-39.432-23.27-50.422c-14.542-11.633-36.196-17.451-66.573-17.451
				c-30.06,0-51.389,1.939-66.578,4.525v198.424h-79.605v31.947c0,5.602,4.567,10.186,10.187,10.186h278.713
				c5.603,0,10.185-4.584,10.185-10.186v-31.947H241.371z M241.371,137.757c3.552-0.967,10.34-1.939,20.357-1.939
				c24.564,0,38.461,11.957,38.461,31.998c0,22.299-16.162,35.549-42.339,35.549c-7.11,0-12.28-0.324-16.479-1.293V137.757z
				 M384.443,328.614h-67.715c-0.561,0-1.014-2.662-1.014-5.947s0.453-5.945,1.014-5.945h67.715c0.56,0,1.013,2.66,1.013,5.945
				S385.003,328.614,384.443,328.614z"/>
		</g>
	</g>
	<g>
		<path fill="#FFFFFF" d="M80.504,412.104c5.102-0.867,12.266-1.52,22.361-1.52c10.203,0,17.477,1.955,22.361,5.861
			c4.668,3.691,7.816,9.77,7.816,16.936c0,7.164-2.389,13.242-6.73,17.367c-5.645,5.318-14.004,7.707-23.773,7.707
			c-2.17,0-4.125-0.107-5.645-0.326v26.162H80.504V412.104z M96.895,445.321c1.412,0.326,3.148,0.436,5.537,0.436
			c8.791,0,14.219-4.451,14.219-11.941c0-6.73-4.668-10.746-12.918-10.746c-3.363,0-5.645,0.324-6.838,0.65V445.321z"/>
		<path fill="#FFFFFF" d="M192.859,457.153c0,19.432-13.787,28.332-28.008,28.332c-15.521,0-27.463-10.203-27.463-27.355
			c0-17.15,11.289-28.113,28.332-28.113C182.004,430.017,192.859,441.196,192.859,457.153z M154.432,457.696
			c0,9.119,3.799,15.957,10.855,15.957c6.404,0,10.529-6.404,10.529-15.957c0-7.924-3.039-15.957-10.529-15.957
			C157.363,441.739,154.432,449.88,154.432,457.696z"/>
		<path fill="#FFFFFF" d="M203.066,407.22h16.5v77.072h-16.5V407.22z"/>
		<path fill="#FFFFFF" d="M245.295,431.21l7.924,26.053c0.867,3.148,1.953,7.055,2.605,9.877h0.324
			c0.76-2.822,1.629-6.838,2.389-9.877l6.514-26.053h17.693l-12.375,34.953c-7.6,21.059-12.701,29.525-18.67,34.846
			c-5.754,4.992-11.832,6.73-15.957,7.273l-3.475-14.004c2.063-0.326,4.668-1.303,7.164-2.822c2.498-1.303,5.211-3.908,6.84-6.621
			c0.543-0.76,0.867-1.629,0.867-2.389c0-0.543-0.107-1.412-0.76-2.715l-19.43-48.521H245.295z"/>
		<path fill="#FFFFFF" d="M289.26,484.292c0.217-3.475,0.436-9.879,0.436-15.85V407.22h16.5v30.287h0.217
			c3.148-4.561,8.684-7.49,16.066-7.49c12.699,0,22.035,10.529,21.926,26.811c0,19.105-12.156,28.658-24.314,28.658
			c-6.188,0-12.158-2.279-15.957-8.576h-0.217l-0.652,7.383H289.26z M306.195,461.714c0,1.084,0.107,2.061,0.326,2.93
			c1.084,4.451,4.885,7.816,9.66,7.816c7.057,0,11.398-5.428,11.398-14.98c0-8.25-3.691-14.764-11.398-14.764
			c-4.451,0-8.576,3.365-9.66,8.143c-0.219,0.977-0.326,1.953-0.326,3.039V461.714z"/>
		<path fill="#FFFFFF" d="M384.789,484.292l-0.977-5.32h-0.326c-3.473,4.234-8.9,6.514-15.197,6.514
			c-10.746,0-17.15-7.816-17.15-16.283c0-13.785,12.375-20.406,31.154-20.299v-0.76c0-2.822-1.52-6.838-9.662-6.838
			c-5.426,0-11.18,1.846-14.654,4.016l-3.039-10.637c3.691-2.063,10.965-4.668,20.625-4.668c17.693,0,23.338,10.42,23.338,22.904
			v18.453c0,5.102,0.219,9.986,0.76,12.918H384.789z M382.836,459.216c-8.684-0.107-15.414,1.955-15.414,8.359
			c0,4.232,2.822,6.295,6.512,6.295c4.125,0,7.49-2.713,8.576-6.078c0.217-0.869,0.326-1.846,0.326-2.822V459.216z"/>
		<path fill="#FFFFFF" d="M411.932,448.687c0-7.814-0.219-12.918-0.436-17.477h14.221l0.543,9.77h0.434
			c2.715-7.707,9.227-10.963,14.328-10.963c1.521,0,2.281,0,3.475,0.217v15.523c-1.193-0.219-2.605-0.436-4.451-0.436
			c-6.078,0-10.203,3.258-11.289,8.359c-0.217,1.086-0.326,2.387-0.326,3.689v26.922h-16.498V448.687z"/>
	</g>
</g>
</svg>
