<?xml version="1.0" encoding="utf-8"?>
<!-- Generator: Adobe Illustrator 15.1.0, SVG Export Plug-In . SVG Version: 6.00 Build 0)  -->
<!DOCTYPE svg PUBLIC "-//W3C//DTD SVG 1.1//EN" "http://www.w3.org/Graphics/SVG/1.1/DTD/svg11.dtd">
<svg version="1.1" id="Layer_2" xmlns="http://www.w3.org/2000/svg" xmlns:xlink="http://www.w3.org/1999/xlink" x="0px" y="0px"
	 width="777px" height="252px" viewBox="0 0 777 252" enable-background="new 0 0 777 252" xml:space="preserve">
<g>
	<g>
		<path d="M219.981,47.259c2.063,0,3.743,1.679,3.743,3.742v149.997c0,2.064-1.68,3.743-3.743,3.743H69.983
			c-2.063,0-3.743-1.679-3.743-3.743V51.001c0-2.063,1.68-3.742,3.743-3.742H219.981 M219.981,43.802H69.983
			c-3.976,0-7.199,3.224-7.199,7.199v149.997c0,3.977,3.224,7.2,7.199,7.2h149.998c3.976,0,7.199-3.224,7.199-7.2V51.001
			C227.181,47.025,223.957,43.802,219.981,43.802L219.981,43.802z"/>
		<g>
			<path d="M214.06,61.463v14.796H75.537V61.463c0-2.604,2.115-4.718,4.717-4.718h129.088
				C211.938,56.745,214.06,58.859,214.06,61.463z"/>
			<path d="M135.196,175.746v-28.435c2.095,0.3,4.789,0.449,7.783,0.449c13.471,0,24.998-3.293,32.781-10.627
				c5.987-5.688,9.279-14.071,9.279-23.949c0-9.881-4.341-18.263-10.777-23.353c-6.735-5.388-16.765-8.083-30.834-8.083
				c-13.922,0-23.801,0.898-30.836,2.096v91.901H75.724v14.796c0,2.595,2.115,4.718,4.718,4.718h129.087
				c2.595,0,4.717-2.123,4.717-4.718v-14.796H135.196z M135.196,99.861c1.646-0.448,4.789-0.898,9.429-0.898
				c11.377,0,17.813,5.538,17.813,14.819c0,10.328-7.485,16.465-19.609,16.465c-3.293,0-5.688-0.149-7.633-0.599V99.861z
				 M201.461,188.257h-31.362c-0.26,0-0.47-1.232-0.47-2.754s0.21-2.754,0.47-2.754h31.362c0.259,0,0.469,1.232,0.469,2.754
				S201.72,188.257,201.461,188.257z"/>
		</g>
	</g>
	<g>
		<path d="M278.018,77.669c6.113-1.041,14.7-1.822,26.799-1.822c12.229,0,20.945,2.342,26.801,7.025
			c5.594,4.424,9.367,11.709,9.367,20.295s-2.863,15.871-8.066,20.814c-6.766,6.375-16.783,9.238-28.491,9.238
			c-2.603,0-4.944-0.131-6.765-0.391v31.354h-19.645V77.669z M297.662,117.478c1.691,0.391,3.772,0.52,6.635,0.52
			c10.537,0,17.043-5.334,17.043-14.311c0-8.064-5.595-12.879-15.482-12.879c-4.033,0-6.765,0.391-8.195,0.781V117.478z"/>
		<path d="M412.666,131.657c0,23.287-16.523,33.955-33.565,33.955c-18.604,0-32.915-12.229-32.915-32.783
			s13.531-33.695,33.956-33.695C399.656,99.134,412.666,112.534,412.666,131.657z M366.611,132.308
			c0,10.93,4.553,19.125,13.01,19.125c7.676,0,12.619-7.676,12.619-19.125c0-9.496-3.643-19.123-12.619-19.123
			C370.124,113.185,366.611,122.942,366.611,132.308z"/>
		<path d="M424.892,71.813h19.774v92.369h-19.774V71.813z"/>
		<path d="M475.498,100.565l9.496,31.223c1.041,3.773,2.342,8.457,3.123,11.838h0.39c0.911-3.381,1.952-8.195,2.862-11.838
			l7.806-31.223h21.206l-14.831,41.891c-9.106,25.238-15.222,35.387-22.377,41.762c-6.896,5.984-14.181,8.064-19.124,8.715
			l-4.163-16.781c2.472-0.391,5.595-1.561,8.587-3.383c2.992-1.561,6.244-4.684,8.195-7.936c0.65-0.91,1.041-1.951,1.041-2.863
			c0-0.65-0.13-1.691-0.91-3.252l-23.287-58.152H475.498z"/>
		<path d="M528.184,164.183c0.26-4.164,0.521-11.84,0.521-18.994V71.813h19.774v36.297h0.26c3.773-5.463,10.408-8.977,19.255-8.977
			c15.222,0,26.409,12.619,26.279,32.135c0,22.896-14.571,34.344-29.142,34.344c-7.416,0-14.57-2.73-19.124-10.277h-0.261
			l-0.78,8.848H528.184z M548.479,137.122c0,1.301,0.131,2.473,0.391,3.512c1.301,5.334,5.854,9.367,11.578,9.367
			c8.457,0,13.66-6.504,13.66-17.953c0-9.887-4.423-17.693-13.66-17.693c-5.334,0-10.277,4.033-11.578,9.758
			c-0.26,1.172-0.391,2.342-0.391,3.643V137.122z"/>
		<path d="M642.665,164.183l-1.171-6.375h-0.391c-4.163,5.074-10.668,7.805-18.214,7.805c-12.879,0-20.555-9.365-20.555-19.514
			c0-16.521,14.831-24.459,37.338-24.328v-0.91c0-3.383-1.821-8.197-11.579-8.197c-6.505,0-13.399,2.213-17.563,4.814l-3.644-12.75
			c4.424-2.471,13.141-5.594,24.719-5.594c21.206,0,27.971,12.49,27.971,27.451V148.7c0,6.115,0.261,11.969,0.911,15.482H642.665z
			 M640.323,134.13c-10.408-0.131-18.474,2.342-18.474,10.018c0,5.074,3.382,7.545,7.806,7.545c4.943,0,8.977-3.252,10.277-7.285
			c0.26-1.041,0.391-2.211,0.391-3.383V134.13z"/>
		<path d="M675.187,121.511c0-9.367-0.26-15.482-0.521-20.945h17.043l0.65,11.709h0.521c3.253-9.238,11.059-13.141,17.173-13.141
			c1.821,0,2.732,0,4.163,0.26v18.604c-1.431-0.26-3.122-0.52-5.334-0.52c-7.285,0-12.229,3.902-13.53,10.018
			c-0.26,1.301-0.39,2.861-0.39,4.424v32.264h-19.775V121.511z"/>
	</g>
</g>
</svg>
