<?xml version="1.0" encoding="utf-8"?>
<!-- Generator: Adobe Illustrator 15.1.0, SVG Export Plug-In . SVG Version: 6.00 Build 0)  -->
<!DOCTYPE svg PUBLIC "-//W3C//DTD SVG 1.1//EN" "http://www.w3.org/Graphics/SVG/1.1/DTD/svg11.dtd">
<svg version="1.1" id="Layer_2" xmlns="http://www.w3.org/2000/svg" xmlns:xlink="http://www.w3.org/1999/xlink" x="0px" y="0px"
	 width="777px" height="259px" viewBox="0 0 777 259" enable-background="new 0 0 777 259" xml:space="preserve">
<g>
	<rect width="777" height="259"/>
	<g>
		<g>
			<path fill="#FFFFFF" d="M218.554,46.55c2.063,0,3.742,1.679,3.742,3.742v149.997c0,2.064-1.68,3.743-3.742,3.743H68.575
				c-2.064,0-3.744-1.679-3.744-3.743V50.292c0-2.063,1.68-3.742,3.744-3.742H218.554 M218.554,43.093H68.575
				c-3.976,0-7.198,3.224-7.198,7.199v149.997c0,3.977,3.223,7.2,7.198,7.2h149.979c3.975,0,7.198-3.224,7.198-7.2V50.292
				C225.752,46.316,222.528,43.093,218.554,43.093L218.554,43.093z"/>
			<g>
				<path fill="#FFFFFF" d="M212.633,60.754V75.55H74.127V60.754c0-2.604,2.115-4.718,4.717-4.718h129.071
					C210.51,56.036,212.633,58.15,212.633,60.754z"/>
				<path fill="#FFFFFF" d="M133.779,175.037v-28.435c2.094,0.3,4.789,0.449,7.782,0.449c13.47,0,24.995-3.293,32.777-10.627
					c5.985-5.688,9.278-14.071,9.278-23.949c0-9.881-4.342-18.263-10.776-23.353c-6.735-5.388-16.763-8.083-30.83-8.083
					c-13.92,0-23.798,0.898-30.832,2.096v91.901H74.314v14.796c0,2.595,2.115,4.718,4.717,4.718h129.071
					c2.593,0,4.716-2.123,4.716-4.718v-14.796H133.779z M133.779,99.152c1.645-0.448,4.789-0.898,9.427-0.898
					c11.376,0,17.813,5.538,17.813,14.819c0,10.328-7.485,16.465-19.607,16.465c-3.292,0-5.687-0.149-7.632-0.599V99.152z
					 M200.035,187.548h-31.357c-0.26,0-0.471-1.232-0.471-2.754s0.211-2.754,0.471-2.754h31.357c0.26,0,0.469,1.232,0.469,2.754
					S200.295,187.548,200.035,187.548z"/>
			</g>
		</g>
		<g>
			<path fill="#FFFFFF" d="M276.582,76.96c6.112-1.041,14.699-1.822,26.795-1.822c12.229,0,20.942,2.342,26.798,7.025
				c5.593,4.424,9.365,11.709,9.365,20.295s-2.862,15.871-8.065,20.814c-6.765,6.375-16.78,9.238-28.486,9.238
				c-2.603,0-4.944-0.131-6.765-0.391v31.354h-19.642V76.96z M296.224,116.769c1.691,0.391,3.773,0.52,6.634,0.52
				c10.536,0,17.041-5.334,17.041-14.311c0-8.064-5.593-12.879-15.48-12.879c-4.032,0-6.763,0.391-8.194,0.781V116.769z"/>
			<path fill="#FFFFFF" d="M411.213,130.948c0,23.287-16.521,33.955-33.561,33.955c-18.601,0-32.911-12.229-32.911-32.783
				s13.529-33.695,33.952-33.695C398.205,98.425,411.213,111.825,411.213,130.948z M365.164,131.599
				c0,10.93,4.552,19.125,13.008,19.125c7.675,0,12.618-7.676,12.618-19.125c0-9.496-3.643-19.123-12.618-19.123
				C368.678,112.476,365.164,122.233,365.164,131.599z"/>
			<path fill="#FFFFFF" d="M423.438,71.104h19.771v92.369h-19.771V71.104z"/>
			<path fill="#FFFFFF" d="M474.037,99.856l9.494,31.223c1.041,3.773,2.342,8.457,3.123,11.838h0.391
				c0.91-3.381,1.951-8.195,2.861-11.838l7.806-31.223h21.202l-14.828,41.891c-9.106,25.238-15.221,35.387-22.374,41.762
				c-6.896,5.984-14.18,8.064-19.123,8.715l-4.161-16.781c2.47-0.391,5.593-1.561,8.585-3.383c2.991-1.561,6.243-4.684,8.194-7.936
				c0.65-0.91,1.04-1.951,1.04-2.863c0-0.65-0.129-1.691-0.909-3.252l-23.284-58.152H474.037z"/>
			<path fill="#FFFFFF" d="M526.716,163.474c0.26-4.164,0.521-11.84,0.521-18.994V71.104h19.771v36.297h0.26
				c3.773-5.463,10.407-8.977,19.254-8.977c15.219,0,26.404,12.619,26.275,32.135c0,22.896-14.57,34.344-29.139,34.344
				c-7.415,0-14.568-2.73-19.121-10.277h-0.261l-0.779,8.848H526.716z M547.008,136.413c0,1.301,0.131,2.473,0.391,3.512
				c1.301,5.334,5.853,9.367,11.577,9.367c8.456,0,13.658-6.504,13.658-17.953c0-9.887-4.422-17.693-13.658-17.693
				c-5.334,0-10.276,4.033-11.577,9.758c-0.26,1.172-0.391,2.342-0.391,3.643V136.413z"/>
			<path fill="#FFFFFF" d="M641.184,163.474l-1.172-6.375h-0.391c-4.161,5.074-10.667,7.805-18.211,7.805
				c-12.877,0-20.552-9.365-20.552-19.514c0-16.521,14.828-24.459,37.333-24.328v-0.91c0-3.383-1.822-8.197-11.578-8.197
				c-6.503,0-13.396,2.213-17.561,4.814l-3.643-12.75c4.424-2.471,13.14-5.594,24.716-5.594c21.202,0,27.968,12.49,27.968,27.451
				v22.115c0,6.115,0.26,11.969,0.909,15.482H641.184z M638.842,133.421c-10.406-0.131-18.472,2.342-18.472,10.018
				c0,5.074,3.382,7.545,7.806,7.545c4.942,0,8.975-3.252,10.275-7.285c0.26-1.041,0.391-2.211,0.391-3.383V133.421z"/>
			<path fill="#FFFFFF" d="M673.701,120.802c0-9.367-0.26-15.482-0.521-20.945h17.04l0.65,11.709h0.521
				c3.252-9.238,11.058-13.141,17.17-13.141c1.822,0,2.732,0,4.163,0.26v18.604c-1.431-0.26-3.122-0.52-5.333-0.52
				c-7.284,0-12.229,3.902-13.529,10.018c-0.26,1.301-0.389,2.861-0.389,4.424v32.264h-19.772V120.802z"/>
		</g>
	</g>
</g>
</svg>
