<?xml version="1.0" encoding="utf-8"?>
<!-- Generator: Adobe Illustrator 15.1.0, SVG Export Plug-In . SVG Version: 6.00 Build 0)  -->
<!DOCTYPE svg PUBLIC "-//W3C//DTD SVG 1.1//EN" "http://www.w3.org/Graphics/SVG/1.1/DTD/svg11.dtd">
<svg version="1.1" id="Layer_2" xmlns="http://www.w3.org/2000/svg" xmlns:xlink="http://www.w3.org/1999/xlink" x="0px" y="0px"
	 width="392.908px" height="516.313px" viewBox="0 0 392.908 516.313" enable-background="new 0 0 392.908 516.313"
	 xml:space="preserve">
<g>
	<g>
		<path d="M358.225,20.137c4.457,0,8.083,3.624,8.083,8.081v323.859c0,4.459-3.626,8.083-8.083,8.083H34.362
			c-4.456,0-8.082-3.624-8.082-8.083V28.218c0-4.457,3.626-8.081,8.082-8.081H358.225 M358.225,12.673H34.362
			c-8.584,0-15.544,6.96-15.544,15.545v323.859c0,8.587,6.96,15.547,15.544,15.547h323.862c8.585,0,15.545-6.96,15.545-15.547
			V28.218C373.77,19.633,366.81,12.673,358.225,12.673L358.225,12.673z"/>
		<g>
			<path d="M345.439,50.806v31.945H46.354V50.806c0-5.621,4.567-10.187,10.185-10.187h278.715
				C340.857,40.619,345.439,45.185,345.439,50.806z"/>
			<path d="M175.165,297.556v-61.394c4.522,0.647,10.34,0.97,16.805,0.97c29.084,0,53.974-7.109,70.778-22.943
				c12.928-12.282,20.034-30.383,20.034-51.71c0-21.334-9.371-39.432-23.27-50.421c-14.542-11.633-36.196-17.452-66.573-17.452
				c-30.06,0-51.389,1.939-66.578,4.525v198.425H46.756v31.946c0,5.603,4.567,10.187,10.187,10.187h278.713
				c5.603,0,10.185-4.584,10.185-10.187v-31.946H175.165z M175.165,133.712c3.552-0.968,10.34-1.939,20.357-1.939
				c24.564,0,38.461,11.957,38.461,31.997c0,22.3-16.162,35.549-42.339,35.549c-7.11,0-12.28-0.323-16.479-1.293V133.712z
				 M318.237,324.568h-67.715c-0.561,0-1.014-2.661-1.014-5.946s0.453-5.946,1.014-5.946h67.715c0.56,0,1.013,2.661,1.013,5.946
				S318.797,324.568,318.237,324.568z"/>
		</g>
	</g>
	<g>
		<path d="M14.298,408.06c5.102-0.868,12.266-1.52,22.361-1.52c10.203,0,17.477,1.954,22.361,5.861
			c4.668,3.691,7.816,9.77,7.816,16.935c0,7.164-2.389,13.243-6.73,17.368c-5.645,5.318-14.004,7.707-23.773,7.707
			c-2.17,0-4.125-0.108-5.645-0.326v26.161H14.298V408.06z M30.688,441.276c1.412,0.325,3.148,0.435,5.537,0.435
			c8.791,0,14.219-4.451,14.219-11.941c0-6.729-4.668-10.746-12.918-10.746c-3.363,0-5.645,0.325-6.838,0.651V441.276z"/>
		<path d="M126.653,453.108c0,19.431-13.787,28.332-28.008,28.332c-15.521,0-27.463-10.204-27.463-27.355
			c0-17.15,11.289-28.114,28.332-28.114C115.798,425.971,126.653,437.151,126.653,453.108z M88.226,453.651
			c0,9.118,3.799,15.957,10.855,15.957c6.404,0,10.529-6.405,10.529-15.957c0-7.925-3.039-15.957-10.529-15.957
			C91.157,437.694,88.226,445.835,88.226,453.651z"/>
		<path d="M136.86,403.175h16.5v77.071h-16.5V403.175z"/>
		<path d="M179.089,427.165l7.924,26.052c0.867,3.148,1.953,7.056,2.605,9.878h0.324c0.76-2.822,1.629-6.839,2.389-9.878
			l6.514-26.052h17.693l-12.375,34.953c-7.6,21.059-12.701,29.525-18.67,34.845c-5.754,4.993-11.832,6.73-15.957,7.273
			l-3.475-14.004c2.063-0.325,4.668-1.303,7.164-2.822c2.498-1.303,5.211-3.907,6.84-6.621c0.543-0.76,0.867-1.629,0.867-2.389
			c0-0.542-0.107-1.411-0.76-2.714l-19.43-48.521H179.089z"/>
		<path d="M223.054,480.246c0.217-3.474,0.436-9.878,0.436-15.849v-61.223h16.5v30.286h0.217c3.148-4.56,8.684-7.49,16.066-7.49
			c12.699,0,22.035,10.529,21.926,26.812c0,19.105-12.156,28.658-24.314,28.658c-6.188,0-12.158-2.28-15.957-8.576h-0.217
			l-0.652,7.382H223.054z M239.989,457.668c0,1.085,0.107,2.062,0.326,2.931c1.084,4.45,4.885,7.815,9.66,7.815
			c7.057,0,11.398-5.428,11.398-14.98c0-8.249-3.691-14.763-11.398-14.763c-4.451,0-8.576,3.365-9.66,8.142
			c-0.219,0.977-0.326,1.954-0.326,3.039V457.668z"/>
		<path d="M318.583,480.246l-0.977-5.319h-0.326c-3.473,4.233-8.9,6.514-15.197,6.514c-10.746,0-17.15-7.816-17.15-16.283
			c0-13.786,12.375-20.407,31.154-20.299v-0.76c0-2.822-1.52-6.839-9.662-6.839c-5.426,0-11.18,1.846-14.654,4.017l-3.039-10.638
			c3.691-2.063,10.965-4.668,20.625-4.668c17.693,0,23.338,10.421,23.338,22.904v18.453c0,5.103,0.219,9.987,0.76,12.918H318.583z
			 M316.63,455.171c-8.684-0.108-15.414,1.954-15.414,8.358c0,4.233,2.822,6.296,6.512,6.296c4.125,0,7.49-2.714,8.576-6.079
			c0.217-0.868,0.326-1.845,0.326-2.822V455.171z"/>
		<path d="M345.726,444.642c0-7.815-0.219-12.918-0.436-17.477h14.221l0.543,9.77h0.434c2.715-7.707,9.227-10.964,14.328-10.964
			c1.521,0,2.281,0,3.475,0.217v15.523c-1.193-0.218-2.605-0.435-4.451-0.435c-6.078,0-10.203,3.257-11.289,8.358
			c-0.217,1.086-0.326,2.388-0.326,3.69v26.921h-16.498V444.642z"/>
	</g>
</g>
</svg>
